<?xml version="1.0" encoding="UTF-8" standalone="no"?>
<!DOCTYPE svg PUBLIC "-//W3C//DTD SVG 1.1//EN" "http://www.w3.org/Graphics/SVG/1.1/DTD/svg11.dtd">
<svg width="100%" height="100%" viewBox="0 0 256 256" version="1.1" xmlns="http://www.w3.org/2000/svg" xmlns:xlink="http://www.w3.org/1999/xlink" xml:space="preserve" xmlns:serif="http://www.serif.com/" style="fill-rule:evenodd;clip-rule:evenodd;stroke-linejoin:round;stroke-miterlimit:1.41421;">
    <g id="path4181" transform="matrix(0.995935,0,0,0.995935,0.520321,0.520321)">
        <circle cx="128" cy="128" r="123" style="fill:white;"/>
    </g>
    <g id="g5">
        <path id="path7" d="M128,256C57.42,256 0,198.58 0,128.006C0,57.426 57.42,0 128,0C198.58,0 256,57.426 256,128.006C256,198.58 198.58,256 128,256ZM128,8.681C62.212,8.681 8.681,62.212 8.681,128.006C8.681,193.8 62.212,247.319 128,247.319C193.788,247.319 247.319,193.8 247.319,128.006C247.319,62.212 193.788,8.681 128,8.681Z"/>
        <g id="brain" transform="matrix(0.33225,0.000402696,-0.000402696,0.33225,128,128)">
            <g transform="matrix(1,0,0,1,-303.5,-230.5)">
                <g id="layer101">
                    <path d="M378.9,444.2C369.4,441.7 361.8,436.7 351.8,426.7C343.2,418 343,417.9 331.3,413.5C316.1,407.9 310.5,405.5 306.8,402.9L303.8,400.7L293.7,403.8C279,408.3 268.3,410 255.5,410C238.2,410 232.2,408.4 212.7,398.5C195.7,389.9 187.8,387 180.7,387C178.6,387 175.3,386.3 173.5,385.4C165.9,381.8 156.8,369.6 154.1,359.3L153,355.2L143.7,359.2C125,367.3 115.8,368.4 93.5,365C86.4,363.9 76.7,362.5 72,361.9C59.7,360.3 55.8,358.6 49.3,352.2C42.4,345.4 37.7,336.8 32,320.5C28,309.3 27.7,307.7 27.4,296.5C27.2,288.5 26.6,283.3 25.6,280.8C23.3,275.3 22.2,269.7 21.1,256.3C20.5,249.6 19.3,241.3 18.5,237.8C16.7,229.9 16.7,226.3 18.5,217.6C20.4,208.5 24.9,199.1 31.4,190.5C36.2,184.3 36.9,182.6 38,176C40.4,161.3 45.3,149 52.4,139.7C54.4,137.1 56,134.3 56,133.5C56,130.4 60.1,120.4 63.4,115.4C68.2,108.2 85.6,88 89.3,85.2C91.1,83.9 95.1,81.5 98.2,79.9C101.3,78.3 104.7,75.8 105.7,74.3C108.9,69.5 118.3,60.5 124.9,56.1C135.3,49 152.1,41.6 177.5,33C190.7,28.5 205.4,23 210.2,20.8C219.4,16.7 222.5,16.1 247.5,14.1C254.6,13.5 262.1,12.2 266,10.9C275,7.9 293,7.3 311.9,9.4C319.8,10.3 331.1,11 337,11C354.4,11 365.5,13.7 382.6,22.1C388.1,24.8 393.6,27 394.8,27C399.4,27 413.1,32.3 424.5,38.6C437.2,45.5 440.9,47.2 455.7,52.5C472.3,58.5 484.4,66.6 489.6,75.6C491.3,78.5 494.8,81.8 500,85.4C514.9,95.9 526.4,109.1 534,124.4C537.8,132.2 539.6,134.5 545.5,139.6C557.7,150.2 566.6,160.5 571,169.2C573.2,173.6 575,177.8 575,178.5C575,179.2 576.6,181.7 578.6,184.1C580.6,186.5 583.4,190.9 584.9,193.9C589.9,203.9 590.5,208 590.4,228.5C590.4,261.4 585.1,285.4 573.9,304.3C567.9,314.4 556.5,325.4 546,331.2C532.4,338.8 527.8,343 511.8,362.9C506.4,369.5 504,373.3 503.6,376C500.6,394.9 471.4,421.8 439.9,434.8C422.5,441.9 410,445 396.5,445.6C388,445.9 384,445.6 378.9,444.2ZM411.1,442C428.5,438.4 448,430.4 462.3,420.8C485.8,405.1 496.9,392.4 501.7,376C502.9,371.9 505.4,367.8 512.1,359.4C524,344.4 533,336.2 543.7,330.3C556.3,323.4 567.8,311.7 574.3,299.3C576.9,294.3 580,287.5 581.1,284.3C587.2,266.8 591,222.1 587.6,207.7C585.6,199.1 582,191.6 577.6,186.4C575.7,184.2 573.2,179.7 572.1,176.4C570.9,173.2 568,167.5 565.5,163.9C561.1,157.4 545.1,141.1 539.7,137.5C538,136.4 535.5,132.6 533,127.3C525.7,111.7 514.1,98.1 498.6,87C493.7,83.5 489.8,79.7 487.5,76.3C481.1,66.7 469.6,59.4 450.4,52.7C444.9,50.8 432.4,45.1 422.5,40.1C409.2,33.3 402.7,30.6 397.5,29.6C393.4,28.8 386.1,26.1 380,23.2C363.9,15.4 357.7,14 335.5,13C325.1,12.5 314.4,11.8 311.8,11.4L307,10.7L307,210.4L314.5,203L322,195.6L322,128.8C322,63.5 322,62.1 320,61.5C317.1,60.6 313.2,55.4 312.4,51.4C310.4,40.5 320.3,31.7 331,34.9C341.6,38.1 344.3,52.7 335.5,59.7L332,62.5L332,198.5L319.5,211L307,223.5L307,258.5L322.5,243L338,227.5L338,152.5L338,77.4L343.5,72C348.7,66.9 348.9,66.5 348.3,62.5C347.6,57.4 349,54.6 353.1,52.4C362.5,47.6 371.6,60.8 363.5,67.7C361,69.9 359.9,70.2 356,69.7C351.4,69.1 351.1,69.3 346.6,73.8L342,78.6L342,228.8L324.5,246.8C307.2,264.6 307,264.9 307,269.1L307.1,273.5L326,254.3L345,235L345,178.3L345,121.5L361.5,105L378,88.5L378,73.8C378,62 377.7,59 376.6,59C373.9,59 370,53.9 370,50.3C370,45.8 371.4,43.4 375.1,41.4C381.4,38.2 388.5,42.8 388.5,50.2C388.5,53.6 387.9,54.7 385.2,57L382,59.6L382,89.5L365,106.5L348,123.5L348,237.5L327.5,258L307,278.5L307,335.7C307,373.2 307.3,393 308,393C308.7,393 309,373.7 309,337.2L309,281.5L331.5,259L354,236.5L354,179.5L354,122.5L382.2,94.3C410.3,66.1 410.4,66 414.6,66C418.5,66 419.1,65.7 420.6,62.5C425.8,51.5 443.2,52.9 447.1,64.7C451.9,79.2 431.8,90.4 422.3,78.5C417.3,72.3 417.1,72.4 388.8,100.7C374.6,114.9 363,127.3 363,128.2C363,129.9 365.5,130 402.5,130L442,130L444.9,126.8C448.7,122.6 453.8,122.4 457.7,126.3C465.7,134.2 453.9,146.9 445.7,139.2C443.4,137 443.2,137 403.2,137C363.7,137 363,137 363,139C363,141 363.7,141 398.3,141L433.6,141L437.5,145C440.6,148.2 442,149 443.8,148.5C446.1,147.9 449.9,149.4 451.2,151.4C453.8,155.2 450.1,162 445.5,162C441.9,162 438.8,158.3 439.2,154.4C439.4,151.7 438.8,150.4 436,147.5L432.6,144L397.8,144C375.3,144 363,144.4 363,145C363,145.6 370.3,146 382.8,146L402.5,146L425.5,169L435.6,169C445.3,169 445.8,168.9 447.4,166.5C450.7,161.5 459,164.2 459,170.3C459,176.8 452.1,179.3 447.6,174.5C445.4,172.1 444.7,172 434.9,172L424.5,172L413,160.5L401.5,149L382.3,149C363.7,149 363,149.1 363,151C363,152.9 363.7,153 382.7,153L402.5,153L422.2,172.7C438.1,188.6 442,193 442,195.2C442,197 442.7,198.1 444.1,198.5C446.8,199.4 450,204.7 450,208.4C450,212.6 444.2,218 439.7,218C435.8,218 431.3,215 430,211.4C428.7,208 429.8,203.3 432.6,200.7C433.9,199.5 435,197.6 435,196.5C435,195.3 428.5,188 417.3,176.8L399.5,159L381.3,159L363,159L363,219L472,219L472,195.7L472,172.5L482.5,162L493,151.5L493,143.2C493,135.4 492.8,134.6 490.5,132.8C489.1,131.7 488,129.8 488,128.4C488,125.5 491.3,122 494,122C496.7,122 500,125.5 500,128.3C500,129.6 499.1,131.5 498,132.5C496.3,134.1 496,135.6 496,143.3L496,152.3L485.5,163L475,173.6L475,196.4C475,214.2 475.3,219.1 476.3,218.8C477.2,218.4 477.6,212.7 477.8,195.4L478,172.5L495.8,154.8C505.8,144.7 514.3,137 515.3,137C516.3,137 518.2,135.7 519.6,134.1C522.8,130.3 526.2,129.5 530.5,131.6C537.7,135 537.2,145.5 529.7,147.9C525.8,149.2 522.5,148.3 519.6,145.1C518.5,144 517.2,143 516.5,143C515.9,143 508.3,150.1 499.7,158.9L484,174.7L484,219.9L481.1,222C478.1,224 477.4,224.1 420.6,224L363,224L363,240.5L341,262.5L318.9,284.6L319.5,306.2L338.9,285.8C349.6,274.7 363.5,260.2 369.9,253.6L381.4,241.8L422.9,240.4C445.8,239.7 466.1,239.1 468.2,239C471.6,239 473.3,237.4 505.1,203.8C530,177.4 539,168.4 540.9,168.2C542.9,168 545.1,169.4 550.1,173.9C556.4,179.7 556.7,179.8 561.3,179.3C565.4,178.8 566.2,179.1 569,181.8C572.3,185.2 572.8,188.5 570.5,192.9C567.6,198.6 560.2,199.3 555.3,194.4C553,192.1 552.8,191.3 553.3,187L553.9,182.1L548.1,177.1C544.9,174.3 541.8,172 541.2,172C540.7,172 526.4,186.7 509.4,204.8C492.5,222.8 477.5,238.7 476.1,240.2L473.5,242.9L428.2,244.1L383,245.4L352.7,276.9C329.1,301.6 322.9,308.6 324.5,308.9C325.7,309.1 327.5,308 329.4,305.9C331,304 343.8,290.5 357.7,275.8L383.1,249L392.3,248.9C397.4,248.9 419,248.3 440.4,247.6L479.3,246.4L489.7,235.7L500,225L510.8,225L520.3,214.7L529.8,204.4L529.3,199.8C528.8,195.6 529,194.8 531.8,192C537.3,186.6 546.2,189 547.6,196.4C548.8,203.3 542.8,209 535.9,207.5C534,207.1 532.5,207.2 532.1,207.9C531.7,208.5 527.2,213.2 522.1,218.5C512.8,227.9 512.6,228 507.1,228.6C501.5,229.1 501.5,229.2 491.5,239.6L481.5,250.1L436.5,251.5C411.8,252.3 389.9,253 388,253C384.7,253 383,254.6 362.5,276.2C332.3,308.1 331.4,309 333.7,308.9C334.7,308.9 345.5,298.3 359.5,283.6C381.6,260.2 383.8,258.2 387.5,257.6C389.7,257.3 412.3,256.5 437.8,255.9L484.1,254.7L493.7,244.3L503.2,234L508.4,234C513.4,234 513.7,233.8 520,227.5L526.4,221L536.3,221C545.8,221 546.3,220.9 548.2,218.4C551.1,214.8 554.5,213.7 558.6,215C568.5,218.3 566.4,233 556.1,233C551.8,233 548.3,230.8 547,227.4C546.1,225.1 545.6,225 537.2,225L528.3,225L521.9,231.5C515.7,237.8 515.4,238 510.5,238L505.4,238L495.4,248.1L485.5,258.3L436,259.7L386.5,261.1L373.7,274.3C346.9,302 340.5,309.2 342.9,308.8C344.3,308.6 352.9,300.3 365.5,287L385.8,265.5L437,264L488.2,262.5L496.8,253.3L505.5,244.1L530.3,243.4L555.2,242.7L561,248.5C566.2,253.7 567,254.1 569,253C571.9,251.4 577.2,252.5 579.6,255.1C580.9,256.5 581.5,258.7 581.5,261.7C581.5,265.4 581,266.6 578.7,268.6C574.6,272.1 569.7,271.8 565.8,267.9C563.1,265.2 562.8,264.4 563.3,260.7C563.9,256.6 563.8,256.4 558.3,251.6L552.8,246.7L530.1,247.3L507.3,248L498.4,257.1L489.4,266.1L438.7,267.7L387.9,269.3L377.2,280.4C371.3,286.5 362.7,295.4 358.1,300.2C350.7,307.9 349.9,309 352.1,309C353.9,309.1 358.7,304.8 372,291.1L389.5,273.2L440.9,272.1L492.4,271.1L498,265.5L503.6,260L518.8,260L526,265.6C531.5,269.8 533.8,271 535.5,270.6C541.1,269.2 547,274.3 547,280.5C547,284.5 542,289 537.5,289C530.9,289 525.7,281.2 528.9,276.1C529.6,275 528.3,273.4 523.8,269.8C517.9,265.2 517.5,265 511.2,265C504.6,265 504.5,265 499.5,269.9L494.5,274.8L442.5,276L390.5,277.1L376.5,291.7C368.8,299.7 362.1,306.9 361.7,307.6C361.1,308.7 361.8,309 364.7,309C368.2,309 369.3,308.2 377,300.5L385.5,292L420.3,292L424.6,296L429,300L490.6,300L497.5,293C503.9,286.5 504.4,285.7 504.1,282.1C503.9,279 504.3,277.9 506.2,276.6C511.2,273.1 518,276.2 518,282C518,285.8 513.9,289.4 510.1,288.8C507.5,288.4 506.2,289.2 499.8,295.7L492.6,303L462.1,303L431.6,303L439.4,311L461.6,311L474.4,324L484.9,324C494.7,324 495.4,323.9 497.6,321.5C503.6,315 513.6,322 509.6,329.9C506.9,335 501.4,335.5 497.7,331C495.1,328 495.1,328 484.8,328L474.4,328L467.5,321L460.6,314L449.5,314L438.5,314L429,304.5L419.5,295L403.5,295L387.5,295L379,303.5L370.5,312L344.8,312L319,312L319,320L405.5,320L422.5,337L450.8,337L461.7,348.5L472.5,360L476,359C480.6,357.7 485.2,359.2 488.5,363.1C493.3,368.9 491,378.5 484.2,381.1C481.9,382 481.8,382.4 482.4,387.4L483,392.7L470.7,403.8L458.5,414.9L432.2,415L406,415L380.4,392L354.8,369L336.9,369L319,369L319,393L362.5,393L370.4,400.9C377.9,408.4 378.4,408.7 381.3,407.9C387.3,406.2 394.6,409.6 397.4,415.4C403.5,428.4 388.8,441.6 376.9,433.7C371.3,430 368.2,421.3 371,417C371.7,415.8 370.4,413.9 365.2,408.8L358.6,402L334,402L309.5,402.1L315,404.9C318,406.4 325.8,409.6 332.3,412L344.2,416.3L353.3,425.4C358.4,430.5 364.8,435.9 367.5,437.5C378.8,444.1 393.4,445.6 411.1,442ZM388.5,425C392.8,420.2 385.7,414.2 380.9,418.6C378.6,420.7 378.5,421.9 380.6,424.8C382.5,427.6 386.1,427.6 388.5,425ZM465.3,398.4C474.3,390.3 475,389.5 475,386C475,383 474.3,381.5 471.5,378.7C469.6,376.8 468,374.1 467.9,372.8C467.7,368.7 468.2,365.5 469.2,364.3C470.4,362.8 469.1,361.1 458.2,349.5L450.1,341L436.3,341L422.5,341L413.5,332L404.5,323L361.8,323C319.7,323 319,323 319,325C319,327 319.7,327 355.8,327L392.5,327L428.5,363L435.6,363C441.8,363 442.9,362.7 445,360.5C449.9,355.3 458,358.4 458,365.5C458,373 449.5,375.8 444.7,370C442.3,367.2 441.7,367 434.8,367L427.5,367L409,348.5L390.5,330L354.8,330L319,330L319,351L341.3,350.3L363.5,349.7L384.4,367.8L405.3,386L423,386C440.6,386 440.6,386 442.8,383.5C447.3,378.3 456,381.4 456,388.2C456,395.6 447.2,398.8 442.8,393L440.6,390L422.8,390L405,390L393.7,380.3C387.6,375 378,366.7 372.5,362L362.5,353.5L340.8,353.8L319,354.1L319,362L358.5,362L408.5,407L455.6,407L465.3,398.4ZM271.8,400.9C274.1,400.3 276,399.4 276,399C276,398.6 274.3,397.8 272.1,397.2C270,396.5 267.6,395.2 266.9,394.3C265.7,392.8 265.7,392.7 267.5,393.4C273.2,395.7 276.2,396.2 284,396.1C288.7,396.1 294.8,395.5 297.5,394.8L302.5,393.5L302.8,387.9L303.1,382.2L297.5,381.5C294.4,381.1 287.8,379.5 282.8,377.9C272.5,374.6 272.3,374.7 264.7,381.7C259.7,386.4 257.7,386.7 260,382.5C261.9,379 260.3,377.5 252.2,375.5C248.5,374.5 243.9,372.8 242,371.6C239,369.9 236.3,369.5 222.9,369C207.7,368.5 207.2,368.4 202.4,365.5C195.7,361.3 190.4,353.4 188.7,345.1C187.5,338.9 187.3,338.6 183.5,337.3C179.2,335.8 175.2,332.5 176.3,331.3C176.7,331 178.4,331.7 180.1,332.9C184.3,336 187,335.1 191.3,329.2C197.7,320.2 207.6,313 234.5,297.5C256.9,284.6 264.7,279.2 273.7,270.7C283.8,261.1 285.2,258.8 287.1,249.5L288.7,241.5L290.4,244.8C291.3,246.5 292.3,248 292.7,248C293,248 295.5,246.3 298.1,244.3L303,240.6L303,233.8L303,227L298,229C277.7,237 255.9,248.3 221.5,268.8C201.2,280.9 197.5,283.5 190,291C180.3,300.7 175.2,309.2 167.4,328.5C162.6,340.2 162.5,340.7 162.5,351C162.5,363.4 164,367.2 171.6,373.9C176.9,378.5 183.7,381 191.4,381C195.7,381 197.4,381.6 202.5,385.1C214.7,393.4 229.6,399.8 243,402.4C247.2,403.2 267.2,402.2 271.8,400.9ZM451,390.5C452.8,388.3 451.8,385.5 449.1,385.5C445.9,385.5 444.2,388.3 445.9,390.4C447.6,392.4 449.4,392.4 451,390.5ZM303,363.6L303,346.1L294.3,345.8L285.7,345.5L283.3,349.1C279.5,354.8 279,358.1 280.7,365.5C282,371.4 282.6,372.4 286.2,374.7C289.9,377.2 299.1,380.9 301.8,381C302.7,381 303,376.9 303,363.6ZM483.3,371.8C483.9,369.8 482.9,367.2 481.3,366.5C476.6,364.8 473.2,370.1 477,373.2C479.3,375.1 482.4,374.4 483.3,371.8ZM268.6,371.4L273.7,370.8L274.3,362.6C274.6,358.1 275.4,353.2 276.1,351.7C276.8,350.2 277,348.7 276.6,348.2C276.2,347.8 269.7,347.7 262.2,347.8C246.7,348.2 245.2,347.1 259.4,345.9C269.8,345 276.4,343.4 278.2,341.3C279,340.3 278.8,339.4 277.1,337.7C275.1,335.5 274.2,332.5 275.8,333.2C276.2,333.4 279.2,334.9 282.5,336.7C290.1,340.6 296.3,342.3 300.1,341.5L303,340.8L303,306L303,271.3L299.9,270.6C293.7,269.4 283.6,273.1 272,281C269,283 255.9,290.9 243,298.5C202.6,322.3 199.7,324.7 196.5,336.6C193.3,348.6 197.1,356.8 208.3,362.3C212.9,364.5 215.2,365 221.7,365C229.4,365 240.6,362.8 242.5,360.9C244.1,359.3 244.8,359.9 244.6,363.2C244.5,365.7 245.1,366.7 247.7,368.2C252.8,371.3 260.2,372.4 268.6,371.4ZM453.4,366.8C454.2,365.4 454.1,364.7 452.8,363.4C449.8,360.4 445.3,364.3 448,367.6C449.6,369.4 451.9,369.1 453.4,366.8ZM134.5,353.6C145.2,350.1 151.9,346.2 154.7,342.1C159.4,335.1 157,334.8 140.9,340C133.7,342.4 124.7,344.6 121.1,344.9C115.2,345.5 113.8,346 110,349.3C105.6,353.1 101,354.2 101,351.6C101,350.8 101.9,349.9 102.9,349.5C104,349.2 105.3,348.3 106,347.5C106.9,346.4 105.9,345.7 99.8,344C95.8,342.8 91.5,341.2 90.3,340.4C89,339.6 85.2,337.9 81.7,336.7C74.9,334.2 57.8,322.9 59.9,322.2C60.6,322 63.7,323.3 66.8,325.2C75.2,330.3 76.8,330.7 73.5,326.9C70.5,323.2 63.6,310 64.4,309.3C65.7,308 68,310.3 70.4,315.3C73.5,322 83.5,331.4 91.4,335.3C100.1,339.6 108.4,341.3 116.5,340.7C124.7,340 137,336.2 145.2,331.8C156.8,325.6 169.8,311.1 171.4,302.4C172.5,296.8 171.2,296 163.7,297.6C153.6,299.8 141,300.4 135.2,299C128,297.3 128.1,296.4 135.3,296.9C141.4,297.2 157.6,294.5 158.5,292.9C159.9,290.7 146.2,284.3 137,283C124.7,281.3 114.8,276.4 105.1,267.4L99.3,262.1L96.9,264.6C95,266.7 94.5,268.4 94.2,274.5C93.5,287 97.8,297.2 108.9,309.9L114.5,316.4L110.2,314C101.2,308.9 92,296.4 89,285C88.1,281.4 86.4,279.2 80.9,274.2C74,267.8 71.3,264.4 72.4,263.2C72.8,262.9 74.7,264.2 76.8,266.2C83.3,272.4 87.4,273.6 88.4,269.6C88.7,268.3 91,264.8 93.5,261.9C96,259 98,256.3 98,255.8C98,255.4 96.9,255 95.5,255C90.6,255 73.6,248.8 69.1,245.4C66.7,243.5 64.3,242 63.7,242C59.5,242 49.6,254.4 47.9,261.7C46.2,269.1 49.4,278.2 57.7,290L59.5,292.4L55.2,290C51.5,287.9 46,281.4 44.7,277.7C44.1,275.7 41.2,277.9 38.4,282.5C34.9,288.6 34.1,298.7 36.4,308C39.5,320.3 46.8,337.5 51,342.2C56.4,348.4 65,352.7 74.1,354C78.2,354.6 84.4,355.4 88,355.9C91.6,356.4 101.7,356.7 110.5,356.6C124.7,356.3 127.4,356 134.5,353.6ZM504.8,329.1C505.6,328.7 506,327.2 505.8,325.9C505.6,324.1 504.9,323.5 503,323.5C501.1,323.5 500.4,324.1 500.2,325.9C499.9,327.9 501.3,330 503,330C503.3,330 504.1,329.6 504.8,329.1ZM184.9,285.3C187.4,283.9 193.3,278.9 198.2,274.2L206.9,265.8L205.5,262.3C204.7,260.4 202.5,256.7 200.6,254.1C193.1,243.9 190.6,237 187.5,218C186.6,212.8 184.8,206.1 183.5,203.3C180.9,197.6 181.6,196.4 185,200.7C186.7,202.9 187.3,203.2 188,202C188.6,201.2 189,200 189,199.3C189,197.2 192.9,189 193.9,189C194.5,189 194.3,190.8 193.4,193.3C189.7,203.5 190.6,220.1 195.6,232.5C200.1,243.6 210.7,259 213.8,259C214.7,259 217.3,258.1 219.7,256.9C225.8,254 226.2,251.2 221.6,245.8C212.2,234.8 210,225.4 210,194.8C210,182.3 209.6,171 209.1,169.7C207.9,166.6 203,164.6 196.8,164.8C192.9,164.9 189.5,166 182.3,169.6C171.2,175.1 165.3,180.5 161,189.3C156.9,197.7 155.7,205.4 156.3,217.6C156.6,223.2 156.6,228 156.3,228.3C156,228.7 154,227.5 151.8,225.7C148.1,222.7 147.3,222.5 140.2,222.5C135.9,222.5 129,222.7 124.6,222.9C117.1,223.3 116.7,223.5 114.8,226.4C113.2,228.9 113,231 113.2,237.8C113.5,246 113,247.5 111.1,244.3C110.1,242.6 109.9,242.7 108,245C105.7,248 104.5,254.5 105.5,259C106.4,263 112,269.3 117.5,272.6C122,275.2 135.5,279 140.2,279C141.8,279 147.5,281 153,283.5C168.2,290.5 175.3,290.9 184.9,285.3ZM513,283.5C514.7,281.5 513.5,279 511,279C508.7,279 507.5,281.2 508.4,283.5C509.1,285.4 511.4,285.4 513,283.5ZM541,282.5C542.6,280.6 542,278 539.5,276.4C535.6,273.8 530.9,279.5 534.2,282.8C535.8,284.4 539.5,284.3 541,282.5ZM36.4,274.8C39.2,273.6 39.5,272.9 40.5,265.8C41.5,258.3 46.4,249.7 53.2,243.6C58.5,238.8 59.2,237.8 58.6,235.4C58,233.2 57.5,232.9 55.2,233.5C49.9,234.7 40.2,239.8 36.2,243.5C29.1,249.8 26.1,265.3 30.5,272.8C32.7,276.4 32.9,276.5 36.4,274.8ZM297.8,265.4L303,264.7L303,254.4C303,248.7 302.6,244 302.1,244C300.6,244 291.1,254 288.5,258.4C284.3,265.6 285.9,266.8 297.8,265.4ZM575.4,264.4C576.3,263.6 577,262.2 577,261.5C577,259.7 574.3,257 572.5,257C568.7,257 566.6,263.1 569.8,264.9C572.2,266.4 573.6,266.2 575.4,264.4ZM100.8,247.4C103.9,245.2 105.6,241.5 106.9,233.5C107.6,229.7 109,224.8 110.1,222.6L112.1,218.8L108.3,215.3C105.9,213.1 105.3,212.1 106.5,212.5C115.5,215.7 118.9,216.3 130.7,216.7C147.4,217.4 148.4,216.9 149.4,207.9C150.9,194.5 157.1,180.6 164.4,174.2C166.2,172.7 172,168.7 177.3,165.5C187.8,159.1 188.6,157.8 185.8,151.3C183.7,146.4 174.6,134.1 172.2,133.1C170.9,132.5 166.6,132 162.5,132C157.9,132 155,131.6 155,130.9C155,129.3 161.5,127 166,127L170,127L170,122C170,117.3 171.6,112 173,112C173.4,112 174,114.1 174.4,116.6C175.5,124.9 177.3,129 182,134.4C184.6,137.4 188.7,143.3 191.2,147.6C197.3,158.1 199.7,160.3 205.6,160.4C211,160.5 212.4,159.1 213.4,152.7C216.2,134.8 229.5,92.6 236.4,79.6C239.6,73.6 239.7,71.5 236.8,69.6C232.9,67.1 227.6,66.8 218.9,68.4C206.1,70.8 203.3,71.8 202.7,74C202.3,75.7 201.8,75.8 198.9,75C193.9,73.5 188.9,73.8 178.2,76C167.3,78.2 151.6,85.7 146.8,91C144.1,93.9 143.2,96.1 144.8,95.9C146.5,95.6 148,96.1 148,96.9C148,97.3 145.2,98.3 141.9,99C127.9,102 107.5,115.2 101.6,125.2C97.6,131.8 95.9,137.2 97,139C97.4,139.7 99.8,140.6 102.2,141L106.7,141.6L107.8,137.5C109.3,132 115.9,124.7 122.3,121.5C125.2,120.1 131.2,115.9 135.7,112.1C151,99.5 170,92.4 191.5,91.3C201.9,90.8 202.9,90.6 209.8,86.8C213.8,84.6 217.4,83.1 217.7,83.4C218.7,84.3 214,88.9 209.2,91.7C204.9,94.2 204.9,94.3 205.6,98.7L206.3,103.2L201.9,100C197.5,96.8 197.4,96.8 188.5,97.4C171,98.5 151.6,105.8 140,115.5C137,118.1 131.3,122.4 127.3,125.1C116.8,132.3 113.2,137.7 114.4,144.6C115.8,151.7 123.9,157.7 133.5,158.7C143.4,159.7 145.1,158 148.1,144.3C148.7,141.4 149.6,139 150.1,139C152.1,139 151,151.8 148.5,158.5C147.1,162.1 144.8,168 143.4,171.8C142,175.5 140.7,180.9 140.7,183.7C140.6,186.6 140.4,189 140.2,189C140,189 139.2,187.3 138.4,185.3C136.9,181.8 137,173.3 138.7,166.3C139.2,164.2 138.8,164 135.4,164C130.5,164 123.4,160.7 113.1,153.6C103.3,146.9 99.2,145.6 92,147C85.7,148.2 76.3,153.1 71.7,157.5C64.9,164.1 61.3,176.5 63.9,184.3C65.5,188.9 67.3,189.4 75.6,187.5C86.1,185.1 87.7,182.7 85.5,173.4C84,167.1 83.6,161.1 84.6,158.6C85.7,155.7 86.5,156.9 86.8,161.7C87.3,170.9 93.7,180.1 104.6,187.2C112.6,192.5 110.7,193.4 101.1,189C93.2,185.3 90.4,185.5 84.3,189.9C79.3,193.5 78,197.8 78,211.1L78,221.5L75.6,218C74.3,216.1 72.9,213 72.6,211.3C71.7,207.5 70.3,207.2 66.7,210C63.9,212.2 62,218.9 62,226.5C62,230.3 62.6,231.5 67,236.3C74.1,244.1 80.6,246.8 97.5,248.9C98.1,248.9 99.6,248.3 100.8,247.4ZM240.5,246.6C243.6,244.4 243,235.5 239.2,223.7C237.4,218.4 236,212.9 236,211.5C236,207.4 237.6,207.8 238.9,212.3C241.3,220.4 246.1,231.5 248.2,233.8C249.4,235 251.1,236 252,236C254,236 270.4,228.9 284,222.1C289.2,219.5 295.6,216.5 298.3,215.5L303,213.7L302.8,172.6L302.5,131.5L297.3,129.6C294.3,128.6 291,128 289.6,128.4C285.6,129.4 275.4,139.6 270.5,147.4C263.6,158.5 257.9,172.5 257.3,179.6C256.6,187.3 258.1,193.6 263.6,207.2C266,213.1 268,218.2 268,218.5C268,218.9 266,217.5 263.6,215.5L259.2,211.9L257,218.4C255.8,222 254.4,225.2 253.9,225.5C253.4,225.9 253,219.9 253,210.8C253,187.1 251.1,177.5 242.5,157.2C239.3,149.5 239.6,145.1 242.9,152.5C245.3,157.8 247.4,160.6 250.2,162.1C251.5,162.8 252.7,161.6 256.6,154.7C263.5,142.7 268.2,136 272.9,131.5C279.5,125.2 281,121.5 282.1,108.3C283.7,88.4 287.5,78.3 297.6,67.1L303,61.2L303,44.5L303,27.8L291.3,28.2C280.5,28.5 279.1,28.8 274.1,31.5C267.3,35.3 262,41.6 261.3,47C260.7,51.4 260.7,51.4 264.3,50.1C268.1,48.6 282.3,46.9 283.1,47.7C283.6,48.2 280.2,49.8 275.7,51.5C268,54.3 266.9,55.1 256.9,65C247.1,74.8 246,76.3 240.8,87C235.1,98.7 232.6,106.3 231.4,115.9C230.7,121.2 230.7,121.2 233.1,120.5C234.4,120.1 237.9,118.7 240.7,117.4C243.6,116.2 246.2,115.5 246.5,116C247.1,117.1 242.6,120.6 234.5,125.3C231.2,127.2 227.7,130.2 226.7,131.9C224.6,135.5 221.4,149.5 220.5,159.5C220.1,163.4 218.7,174.1 217.4,183.3C212.6,216.9 214.9,231.9 226.5,243.6C230.2,247.3 231.6,248 234.8,248C236.9,248 239.5,247.4 240.5,246.6ZM30.3,229.2C30.9,217.5 32.8,209.9 36.8,203C39,199.1 39.8,194.5 38.4,193.1C37.6,192.3 33.9,196.4 31.4,200.9C25.4,211.7 22.9,227.7 25.3,239.3C26.1,243 26.2,243.1 27.9,241.6C29.4,240.3 29.8,237.8 30.3,229.2ZM47.2,228.3C54.2,225.5 56,223.3 56,217.3C56,214.2 62.9,206.8 68,204.5C71.8,202.8 72,202.5 72,198.3L72,194L67,194C61.7,194 56.2,195.8 49,200C45.4,202.1 43.8,204 40.8,209.7C35.5,220 34.3,233.2 38.8,231.5C39.8,231.2 43.5,229.7 47.2,228.3ZM558.8,226.8C560.6,225 560.2,222.3 557.8,220.6C554.1,218 549.9,222 552,226.1C553.2,228.2 557,228.6 558.8,226.8ZM442.5,208.1C442.5,204.7 439.5,203 437.4,205.2C434.9,207.6 436.4,211.2 439.8,210.8C441.9,210.6 442.5,210 442.5,208.1ZM541.4,201.1C543.7,198.5 542.7,195.2 539.3,194.4C535,193.3 532.4,198.2 535.6,201.4C537.7,203.5 539.3,203.4 541.4,201.1ZM54.8,189.5C57.6,188.9 58,188.5 57.3,186.7C56.9,185.5 56.6,182.5 56.8,180C56.9,177.5 57.2,169.2 57.3,161.5C57.4,153.8 57.9,146.9 58.4,146.2C59.1,145.1 58.8,145 57.2,145.9C54.4,147.4 49.7,157.4 46.5,168.5C44.4,175.5 43.9,179 44.3,184.1C44.8,192.6 45.3,193.4 48.8,191.6C50.3,190.9 53,189.9 54.8,189.5ZM565.4,191.1C567.7,188.6 566.7,185.2 563.4,184.4C558.8,183.2 556.2,188.1 559.6,191.4C561.7,193.5 563.3,193.4 565.4,191.1ZM455.3,171.8C456,169.7 454.9,168 453,168C450.7,168 449.6,169.6 450.4,171.5C451.1,173.3 454.7,173.5 455.3,171.8ZM447.5,155C447.5,153.4 446.9,152.4 445.7,152.2C443.8,151.8 442.5,154.2 443.4,156.6C444.3,159.1 447.5,157.9 447.5,155ZM73.1,148C73.9,148 75.6,147.3 76.8,146.4C78.8,145 79,144 79,136.4C79,131.1 79.6,126.6 80.5,124.3C82.3,120.1 82.3,120 81,120C78.7,120 70.2,129.2 67.7,134.4C65,139.9 63.2,149.6 64.4,152.6C65,154.1 65.5,153.9 68.3,151.2C70.1,149.4 72.3,148 73.1,148ZM529.4,140.5C530.1,138.6 527.3,135.9 525.5,136.6C523.7,137.3 523.5,141.7 525.3,142.3C527,142.9 528.7,142.1 529.4,140.5ZM90.6,135.3C93.4,121.5 101.3,112.4 120.5,101.1C127.8,96.8 137.2,90.6 141.5,87.4C151.2,80.1 150.8,80.3 155.1,78.6C157.4,77.8 160.7,74.9 163.6,71.3C168.9,64.9 174.3,60.4 174.8,62C175,62.5 174,64.5 172.6,66.3C168.8,71.2 169.2,71.9 175,70.4C177.8,69.7 182.9,68.8 186.3,68.4C189.7,68.1 197.2,66.6 203,65.3C217,62 230.2,61.2 236.6,63.4C239.2,64.3 241.9,65 242.5,65C244.9,65 249,57.6 249,53.3C249,48.6 248.7,48.3 242.2,46.7C239.2,45.9 237.5,45 237.5,44C237.5,42.4 239.4,42.3 247.3,43.5C251.9,44.3 252.3,44.1 254.6,41.4C259.4,35.5 256.4,33 244.5,33C235,33 228.6,35.4 219.5,42.3C213.9,46.5 211.2,47.8 206,48.8C194.6,51.1 177.2,57.5 154,67.9C127.6,79.8 127.1,80.1 115.8,88C97.2,101.1 87.7,114.5 86.5,129.2C85.5,142.4 88.3,146.6 90.6,135.3ZM454.4,133.5C455.1,131.6 452.4,128.9 450.5,129.6C448.4,130.4 447.9,132.8 449.6,134.4C451.2,136.1 453.6,135.6 454.4,133.5ZM495.8,128.2C496.1,126.6 495.6,126 494.2,126C491.8,126 490.7,128.3 492.3,129.9C493.9,131.5 495.4,130.7 495.8,128.2ZM302.8,86.3L302.5,72.5L299.6,77C293.9,85.7 291.7,94.2 291.6,107.1C291.5,120.1 292,121.4 299,125L302.5,126.8L302.8,113.4C302.9,106 302.9,93.8 302.8,86.3ZM86.6,104.2C102.3,91.1 110.2,82 105.9,82C104.2,82 85.8,98.2 79.9,104.9C77.1,108.2 73.8,112.3 72.7,114.2C70.2,118.1 68.7,119.2 86.6,104.2ZM123.1,74.5C128.3,71.4 134.9,68.2 137.9,67.3C142,66 144.1,64.5 146.9,61.2C153.1,53.6 155.8,51 157.4,51C158.7,51 158.7,51.5 157,54.3C155.9,56 155,58 155,58.7C155,60.2 190.4,42.9 193.7,39.8C196.9,36.8 196.6,35 193.1,35C189.2,35 165.1,43.8 152.2,50C135.5,58 117.3,70.5 114.4,76.1C113,79 112.7,80 113.4,80C113.6,80 118,77.5 123.1,74.5ZM436.8,72.8C437.5,72.1 438,70.4 438,69C438,65.9 436.3,64 433.6,64C431.1,64 428,66.8 428,69.1C428,73.1 434,75.6 436.8,72.8ZM360.4,63.4C362.5,61.4 362.4,60.4 360.1,58.1C357.6,55.6 354.2,56.4 353.4,59.6C352.2,64.2 357.1,66.8 360.4,63.4ZM330,52C331.1,50.9 332,49.3 332,48.5C332,46.6 328.4,43 326.5,43C324.6,43 321,46.6 321,48.5C321,50.4 324.6,54 326.5,54C327.3,54 328.9,53.1 330,52ZM382.4,52.4C384.5,50.4 384.4,49.4 382.1,47.1C379.6,44.6 376.2,45.4 375.4,48.6C374.2,53.2 379.1,55.8 382.4,52.4ZM218.7,33.2C234.8,26 241.4,24.8 255.3,26.5C262.4,27.3 263,26.9 260.4,23.2C259,21.1 258.2,21 246.2,21C225,21 214.2,24.5 205.6,34.1C203.1,36.9 201,39.6 201,40.1C201,40.9 202.1,40.5 218.7,33.2ZM281.7,20.9C288.3,19.4 292.1,19.1 296.8,19.6L303,20.2L303,17L303,13.8L291.3,14.3C284.8,14.5 277.1,15.3 274.3,16C269.4,17.1 269,17.4 269,20.1C269,23.7 269.8,23.7 281.7,20.9Z" style="fill-rule:nonzero;"/>
                    <path d="M486.6,349.5C482.3,345.2 484.6,339 490.5,339C493.1,339 494.4,339.6 495.6,341.5C497.1,343.8 497.9,344 504.4,344L511.5,344L528.5,327L545.5,310L545.2,304.7L544.9,299.5L551.5,293C557.2,287.4 558,286.2 557.5,283.8C557,281.7 557.5,280.5 559.4,278.5C562.5,275.5 563.9,275.4 567.4,278.1C572.3,282 569.2,289.5 563,288.8C560.5,288.6 559,289.6 554,294.5C548.1,300.3 548,300.5 548,306L548,311.5L530.3,329.2L512.5,347L504.8,347C498.3,347 496.7,347.3 495,349C492.6,351.4 488.7,351.6 486.6,349.5ZM492.8,344.6C492.6,343.3 491.8,342.5 490.5,342.5C488.2,342.5 487.2,345.9 489.1,347C491.1,348.3 493.1,346.9 492.8,344.6ZM566,283C566,280.6 563.4,279.2 561.8,280.8C560.2,282.4 561.6,285 564,285C565.3,285 566,284.3 566,283Z" style="fill-rule:nonzero;"/>
                    <path d="M416.6,114.4C410.1,107.4 409.4,107 405.4,107C402.1,107 400.8,107.5 400,109C398.5,111.9 394.4,112.6 392,110.5C387.3,106.2 391.6,98.7 397.4,100.9C398.8,101.5 400,102.6 400,103.5C400,104.7 401.3,105 405.9,105L411.9,105L425.5,120L460.7,120L465.7,114.3C470.1,109.1 470.5,108.2 469.6,105.8C468.3,102.1 470.5,98.1 474.2,97.3L477,96.8L477,85.5C477,71.6 476.5,70.9 466.4,71.1L459.5,71.2L447.7,83.7C438.4,93.5 436,96.5 436.5,98.1C438.1,103 431.2,107.1 427.6,103.4C424.1,100 426.4,94 431.2,94C433.8,94 436,92.2 446.7,81L459.2,68L466.9,68C474,68 474.8,68.2 477.3,70.8C479.8,73.4 479.9,74.1 480.2,86C480.5,93.9 481.1,99.7 482,101.7C483.3,104.7 483.2,105.2 481.3,107.7C479.8,109.8 478.4,110.5 476.1,110.5C473.5,110.5 471.8,111.5 467.4,116.2L461.9,122L442.7,121.9L423.5,121.8L416.6,114.4ZM397,105.9C397,103.4 393.7,103.7 393.2,106.3C393,107.5 393.5,108 394.9,108C396.4,108 397,107.4 397,105.9ZM478.4,105.8C480.2,103.2 478.9,100 476,100C473.1,100 471.8,103.2 473.6,105.8C474.4,107 475.5,108 476,108C476.5,108 477.6,107 478.4,105.8ZM432.7,100.4C433.5,98.3 431.4,96.2 429.9,97.7C428.6,99 429.4,102 431,102C431.6,102 432.3,101.3 432.7,100.4Z" style="fill-rule:nonzero;"/>
                </g>
            </g>
        </g>
    </g>
</svg>
