<?xml version="1.0" encoding="UTF-8" standalone="no"?>
<!DOCTYPE svg PUBLIC "-//W3C//DTD SVG 1.1//EN" "http://www.w3.org/Graphics/SVG/1.1/DTD/svg11.dtd">
<svg id="pattern-icon" width="100%" height="100%" viewBox="0 0 256 256" version="1.1" xmlns="http://www.w3.org/2000/svg" xmlns:xlink="http://www.w3.org/1999/xlink" xml:space="preserve" xmlns:serif="http://www.serif.com/" style="fill-rule:evenodd;clip-rule:evenodd;stroke-linecap:round;stroke-linejoin:round;stroke-miterlimit:1.5;">
    <g id="path4181" transform="matrix(0.995935,0,0,0.995935,0.520321,0.520321)">
        <circle cx="128" cy="128" r="123" style="fill:white;"/>
    </g>
    <g id="g5">
        <path id="path7" d="M128,256C57.42,256 0,198.58 0,128.006C0,57.426 57.42,0 128,0C198.58,0 256,57.426 256,128.006C256,198.58 198.58,256 128,256ZM128,8.681C62.212,8.681 8.681,62.212 8.681,128.006C8.681,193.8 62.212,247.319 128,247.319C193.788,247.319 247.319,193.8 247.319,128.006C247.319,62.212 193.788,8.681 128,8.681Z"/>
        <g transform="matrix(0.732713,-0.000101603,0.000101603,0.732713,31.6395,39.1509)">
            <g transform="matrix(-0.7375,0.656012,-0.653647,-0.734842,168.701,84.0829)">
                <path d="M0.388,-41.027C22.487,-22.316 41.454,-16.682 57.297,-24.476C62.923,-27.243 67.483,-29.827 66.754,-28.359C65.528,-25.89 64.705,-18.28 65.664,-5.591C67.174,14.398 70.201,20.061 69.685,19.829C64.568,17.524 52.843,12.276 32.427,19.102C27.489,20.754 21.766,23.457 17.12,28.73C12.707,33.737 9.375,40.534 4.337,41.709C-10.393,45.145 -22.299,44.16 -27.829,41.154C-43.639,32.56 -51,19.252 -51,0C-51,-14.995 -43.296,-32.051 -31.275,-39.675C-26.557,-42.667 -1.572,-42.687 0.388,-41.027Z" style="stroke:black;stroke-width:0.42px;"/>
            </g>
            <g transform="matrix(1.14459,1.16457,-0.284249,0.279373,34.3103,-7.20225)">
                <path d="M145.525,139.296C135.003,106.495 120.414,87.889 99.386,91.766C78.618,91.255 61.703,105.142 51.32,143.431L51.212,218.707C51.212,218.707 59.68,165.449 98.328,165.739C139.747,166.049 145.426,218.707 145.426,218.707L145.525,139.296Z" style="stroke:black;stroke-width:0.29px;"/>
            </g>
            <g transform="matrix(0.980821,0.980821,-0.208621,0.208621,46.3256,52.9665)">
                <path d="M121.305,188.859C121.305,188.859 117.701,166.945 107.969,150.76C97.266,132.96 77.779,135.478 77.779,135.478C77.779,135.478 62.021,136.264 52.272,148.292C36.541,167.698 36.745,188.944 36.745,188.944L36.745,215.797C36.745,215.797 41.62,155.51 77.593,156.723C88.738,157.099 97.075,161.992 103.302,168.817C119.08,186.108 121.305,215.797 121.305,215.797L121.305,188.859Z" style="stroke:black;stroke-width:0.41px;"/>
            </g>
            <g transform="matrix(-0.847403,-0.847403,0.160144,-0.160144,110.319,276.912)">
                <path d="M120.22,186.125C118.239,173.866 117.701,166.945 107.969,150.76C97.266,132.96 77.779,135.478 77.779,135.478C77.779,135.478 62.021,136.264 52.272,148.292C36.541,167.698 36.652,196.165 36.652,196.165L36.745,215.797C36.745,215.797 41.62,155.51 77.593,156.723C88.738,157.099 97.075,161.992 103.302,168.817C119.08,186.108 121.305,215.797 121.305,215.797C121.305,215.797 121.815,195.988 120.22,186.125Z" style="stroke:black;stroke-width:0.47px;"/>
            </g>
            <g>
                <g transform="matrix(0.673262,0.388708,-0.0890696,0.154273,53.45,109.262)">
                    <rect x="19.051" y="167.777" width="60.081" height="11.392" style="stroke:black;stroke-width:0.73px;"/>
                </g>
                <g transform="matrix(1.06818,0,0,1.00356,-6.33978,-0.614904)">
                    <path d="M94.895,172.539L96.031,171.403L91.842,165.915L90.948,167.679L94.895,172.539" style="stroke:black;stroke-width:0.4px;"/>
                </g>
            </g>
            <g transform="matrix(1,0,0,1,10.9759,26.5059)">
                <g transform="matrix(0.673262,0.388708,-0.0890696,0.154273,53.45,109.262)">
                    <rect x="19.051" y="167.777" width="60.081" height="11.392" style="stroke:black;stroke-width:0.73px;"/>
                </g>
                <g transform="matrix(1.06818,0,0,1.00356,-6.33978,-0.614904)">
                    <path d="M94.895,172.539L96.031,171.403L91.842,165.915L90.948,167.679L94.895,172.539" style="stroke:black;stroke-width:0.4px;"/>
                </g>
            </g>
            <g transform="matrix(1.32977,0,0,1.32977,-20.5933,-43.0088)">
                <g transform="matrix(0.673262,0.388708,-0.0890696,0.154273,53.45,109.262)">
                    <path d="M79.132,167.777L19.052,170.302L19.157,177.401L79.187,176.678L79.132,167.777Z" style="stroke:black;stroke-width:0.55px;"/>
                </g>
                <g transform="matrix(1.06818,0,0,1.00356,-6.33978,-0.614904)">
                    <path d="M96.031,171.403L91.842,165.915L91.159,167.316L95.176,172.259" style="stroke:black;stroke-width:0.3px;"/>
                </g>
            </g>
            <g transform="matrix(1.27082,0,0,1.27082,-14.1701,-25.3671)">
                <g transform="matrix(0.673262,0.388708,-0.0890696,0.154273,53.45,109.262)">
                    <path d="M79.132,167.777L19.052,170.302L19.157,177.401L79.187,176.678L79.132,167.777Z" style="stroke:black;stroke-width:0.57px;"/>
                </g>
                <g transform="matrix(1.06818,0,0,1.00356,-6.33978,-0.614904)">
                    <path d="M96.031,171.403L91.842,165.915L91.159,167.316L95.176,172.259" style="stroke:black;stroke-width:0.31px;"/>
                </g>
                <g transform="matrix(0.786896,0,0,0.786896,11.1504,19.9612)">
                    <path d="M106.971,193.541L108.132,192.45" style="stroke:black;stroke-width:0.41px;"/>
                </g>
            </g>
        </g>
    </g>
</svg>
